<svg id="Layer_3" data-name="Layer 3" xmlns="http://www.w3.org/2000/svg" viewBox="0 0 1080 1080"><defs><style>.cls-1{font-size:129.44px;font-family:SourceSansRoman-Black, Source Sans Variable;font-weight:800;}.cls-1,.cls-2{fill:#751729;}.cls-3{fill:#dc997e;}</style></defs><text class="cls-1" transform="translate(355.28 662.79)">Waraq</text><rect class="cls-2" x="393.61" y="379.93" width="288.68" height="164.16" rx="23.36"/><path class="cls-3" d="M636.33,420.44c-1.06-11.43,22.08-15.13,22.08-15.13H604.24a41.58,41.58,0,1,0,32.09,15.13ZM604.24,465a18.08,18.08,0,1,1,18.08-18.07A18.08,18.08,0,0,1,604.24,465Z"/><path class="cls-3" d="M472.15,405.56H417s23.58,3.77,22.49,15.42a42.38,42.38,0,1,0,32.7-15.42Zm0,60.79a18.42,18.42,0,1,1,18.42-18.42A18.41,18.41,0,0,1,472.15,466.35Z"/><path class="cls-3" d="M604.24,405.72a45.55,45.55,0,0,0-44,32.88L544.79,481l-4.46,15.39-4.46-15.28-16.78-46.35a39.53,39.53,0,0,0-38.94-28.44l42.48,86,17.92,36.06,17.27-36.5h-.12Z"/></svg>